<svg xmlns="http://www.w3.org/2000/svg" xmlns:xlink="http://www.w3.org/1999/xlink" id="Layer_1" x="0px" y="0px" viewBox="0 0 230 67.9" style="enable-background:new 0 0 230 67.9;" xml:space="preserve">
<style type="text/css">
	.st0{fill:#138675;}
	.st1{fill:#949391;}
</style>
<g>
	<g>
		<path class="st0" d="M107.3,46.6v1.9h3.1v1.1h-3.1v2.9h-1.2v-7h4.7l0,1.1H107.3z"></path>
		<path class="st0" d="M119,51.5c-0.7,0.7-1.6,1-2.6,1s-1.9-0.3-2.6-1c-0.7-0.7-1.1-1.5-1.1-2.6s0.4-1.9,1.1-2.6    c0.7-0.7,1.6-1,2.6-1s1.9,0.3,2.6,1c0.7,0.7,1.1,1.5,1.1,2.6S119.7,50.8,119,51.5z M118.1,47.1c-0.5-0.5-1.1-0.7-1.8-0.7    s-1.3,0.2-1.8,0.7c-0.5,0.5-0.7,1.1-0.7,1.8s0.2,1.3,0.7,1.8c0.5,0.5,1.1,0.7,1.8,0.7s1.3-0.2,1.8-0.7s0.7-1.1,0.7-1.8    S118.6,47.6,118.1,47.1z"></path>
		<path class="st0" d="M124.1,50.9c0.3,0.4,0.8,0.6,1.3,0.6s1-0.2,1.3-0.6c0.3-0.4,0.5-0.9,0.5-1.5v-3.9h1.2v3.9    c0,1-0.3,1.8-0.8,2.3c-0.6,0.5-1.3,0.8-2.1,0.8c-0.9,0-1.6-0.3-2.1-0.8c-0.6-0.5-0.8-1.3-0.8-2.3v-3.9h1.2v3.9    C123.6,50,123.8,50.5,124.1,50.9z"></path>
		<path class="st0" d="M136.5,45.5h1.2v7h-1.3l-4-5.1v5.1h-1.2v-7h1.2l4.1,5.2V45.5z"></path>
		<path class="st0" d="M145.9,46.4c0.7,0.6,1,1.5,1,2.5c0,1.1-0.3,1.9-1,2.6c-0.7,0.6-1.7,1-3,1h-2.3v-7h2.4    C144.2,45.5,145.2,45.8,145.9,46.4z M145.7,49c0-1.6-0.9-2.4-2.8-2.4h-1.2v4.8h1.3c0.8,0,1.5-0.2,1.9-0.6S145.7,49.8,145.7,49z"></path>
		<path class="st0" d="M150.4,50.9l-0.7,1.6h-1.3l3.1-7h1.3l3.1,7h-1.3l-0.7-1.6H150.4z M153.4,49.8l-1.3-2.9l-1.3,2.9H153.4z"></path>
		<path class="st0" d="M159.7,46.6v5.9h-1.2v-5.9h-2.1v-1.1h5.4v1.1H159.7z"></path>
		<path class="st0" d="M164.1,45.5h1.2v7h-1.2V45.5z"></path>
		<path class="st0" d="M174.1,51.5c-0.7,0.7-1.6,1-2.6,1s-1.9-0.3-2.6-1c-0.7-0.7-1.1-1.5-1.1-2.6s0.4-1.9,1.1-2.6    c0.7-0.7,1.6-1,2.6-1s1.9,0.3,2.6,1c0.7,0.7,1.1,1.5,1.1,2.6S174.8,50.8,174.1,51.5z M173.2,47.1c-0.5-0.5-1.1-0.7-1.8-0.7    s-1.3,0.2-1.8,0.7s-0.7,1.1-0.7,1.8s0.2,1.3,0.7,1.8s1.1,0.7,1.8,0.7s1.3-0.2,1.8-0.7s0.7-1.1,0.7-1.8S173.7,47.6,173.2,47.1z"></path>
		<path class="st0" d="M182.9,45.5h1.2v7h-1.3l-4-5.1v5.1h-1.2v-7h1.2l4.1,5.2V45.5z"></path>
	</g>
	<g>
		<path class="st0" d="M84.5,64.1c-0.7,0.7-1.6,1-2.6,1s-1.9-0.3-2.6-1c-0.7-0.7-1.1-1.5-1.1-2.6s0.4-1.9,1.1-2.6    c0.7-0.7,1.6-1,2.6-1s1.9,0.3,2.6,1s1.1,1.5,1.1,2.6S85.2,63.5,84.5,64.1z M83.6,59.8c-0.5-0.5-1.1-0.7-1.8-0.7    c-0.7,0-1.3,0.2-1.8,0.7s-0.7,1.1-0.7,1.8s0.2,1.3,0.7,1.8s1.1,0.7,1.8,0.7c0.7,0,1.3-0.2,1.8-0.7s0.7-1.1,0.7-1.8    S84.1,60.3,83.6,59.8z"></path>
		<path class="st0" d="M88,62.2v2.9h-1.1v-5.3H88v1c0.2-0.3,0.4-0.6,0.7-0.8c0.3-0.2,0.7-0.3,1-0.3c0.6,0,1.1,0.2,1.5,0.6    c0.4,0.4,0.6,0.9,0.6,1.6v3.3h-1.1v-2.9c0-1-0.4-1.5-1.2-1.5c-0.4,0-0.7,0.1-1,0.4S88,61.7,88,62.2z"></path>
		<path class="st0" d="M98.3,62.9h-4.2c0,0.4,0.2,0.7,0.5,0.9c0.3,0.2,0.7,0.4,1.1,0.4c0.7,0,1.2-0.2,1.5-0.6l0.6,0.7    c-0.6,0.6-1.3,0.9-2.2,0.9c-0.7,0-1.4-0.2-1.9-0.7c-0.5-0.5-0.8-1.2-0.8-2s0.3-1.5,0.8-2c0.5-0.5,1.2-0.7,1.9-0.7    c0.7,0,1.3,0.2,1.8,0.7c0.5,0.4,0.8,1,0.8,1.8V62.9z M94.1,62.1h3.1c0-0.4-0.1-0.8-0.4-1c-0.3-0.2-0.6-0.4-1-0.4s-0.8,0.1-1.1,0.4    S94.1,61.6,94.1,62.1z"></path>
		<path class="st0" d="M104.6,65.2c-0.7,0-1.4-0.3-1.9-0.8c-0.5-0.5-0.8-1.2-0.8-2c0-0.8,0.3-1.5,0.8-2s1.2-0.8,2-0.8    c0.8,0,1.5,0.3,2,0.8l-0.7,0.8c-0.5-0.4-0.9-0.6-1.4-0.6c-0.5,0-0.9,0.2-1.2,0.5c-0.3,0.3-0.5,0.7-0.5,1.2c0,0.5,0.2,0.9,0.5,1.2    c0.3,0.3,0.8,0.5,1.3,0.5c0.5,0,1-0.2,1.4-0.7l0.7,0.7C106.2,64.9,105.4,65.2,104.6,65.2z"></path>
		<path class="st0" d="M111.7,62.7v-2.9h1.1v5.3h-1.1v-1c-0.2,0.3-0.4,0.6-0.7,0.8c-0.3,0.2-0.7,0.3-1,0.3c-0.6,0-1.1-0.2-1.5-0.5    c-0.4-0.4-0.6-0.9-0.6-1.6v-3.3h1.1v2.9c0,1,0.4,1.5,1.2,1.5c0.4,0,0.7-0.1,1-0.4C111.6,63.5,111.7,63.2,111.7,62.7z"></path>
		<path class="st0" d="M117.2,60.8c-0.6,0-1,0.2-1.3,0.5c-0.3,0.4-0.4,0.8-0.4,1.5v2.3h-1.1v-5.3h1.1v1.1c0.2-0.3,0.4-0.6,0.7-0.8    c0.3-0.2,0.6-0.3,1-0.3L117.2,60.8C117.3,60.8,117.3,60.8,117.2,60.8z"></path>
		<path class="st0" d="M123.4,62.9h-4.2c0,0.4,0.2,0.7,0.5,0.9c0.3,0.2,0.7,0.4,1.1,0.4c0.7,0,1.2-0.2,1.5-0.6l0.6,0.7    c-0.6,0.6-1.3,0.9-2.2,0.9c-0.7,0-1.4-0.2-1.9-0.7c-0.5-0.5-0.8-1.2-0.8-2s0.3-1.5,0.8-2c0.5-0.5,1.2-0.7,1.9-0.7    c0.7,0,1.3,0.2,1.8,0.7s0.8,1,0.8,1.8V62.9z M119.2,62.1h3c0-0.4-0.1-0.8-0.4-1c-0.3-0.2-0.6-0.4-1-0.4c-0.4,0-0.8,0.1-1.1,0.4    C119.4,61.3,119.2,61.6,119.2,62.1z"></path>
		<path class="st0" d="M128.4,63.5c0,0.5-0.2,0.9-0.5,1.2c-0.4,0.3-0.8,0.5-1.4,0.5c-0.4,0-0.8-0.1-1.2-0.2    c-0.4-0.1-0.8-0.3-1.1-0.6l0.5-0.9c0.6,0.5,1.2,0.7,1.8,0.7c0.3,0,0.5-0.1,0.6-0.2c0.1-0.1,0.2-0.3,0.2-0.4c0-0.3-0.4-0.5-1.1-0.7    c-0.1,0-0.1,0-0.1,0c-1.1-0.3-1.7-0.8-1.7-1.5c0-0.5,0.2-0.9,0.6-1.2c0.4-0.3,0.9-0.4,1.5-0.4s1.2,0.2,1.7,0.5l-0.4,0.8    c-0.4-0.3-0.9-0.4-1.4-0.4c-0.3,0-0.5,0-0.6,0.1c-0.2,0.1-0.3,0.2-0.3,0.4c0,0.2,0.1,0.3,0.3,0.4c0.1,0.1,0.3,0.1,0.5,0.2    c0.2,0.1,0.4,0.1,0.6,0.2c0.2,0.1,0.3,0.1,0.5,0.2c0.2,0.1,0.3,0.2,0.5,0.3C128.2,62.6,128.4,63,128.4,63.5z"></path>
		<path class="st0" d="M129.7,65c-0.1-0.1-0.2-0.3-0.2-0.5s0.1-0.4,0.2-0.5c0.1-0.1,0.3-0.2,0.5-0.2c0.2,0,0.4,0.1,0.5,0.2    c0.1,0.1,0.2,0.3,0.2,0.5s-0.1,0.4-0.2,0.5s-0.3,0.2-0.5,0.2C130,65.2,129.9,65.1,129.7,65z"></path>
		<path class="st0" d="M137.8,59.2v5.9h-1.2v-5.9h-2.1v-1.1h5.4v1.1H137.8z"></path>
		<path class="st0" d="M142.2,62.2v2.9h-1.1v-7.4h1.1v3.1c0.2-0.3,0.4-0.6,0.7-0.8s0.7-0.3,1-0.3c0.6,0,1.1,0.2,1.5,0.6    c0.4,0.4,0.6,0.9,0.6,1.6v3.3h-1.1v-2.9c0-1-0.4-1.5-1.2-1.5c-0.4,0-0.7,0.1-1,0.4C142.3,61.4,142.2,61.7,142.2,62.2z"></path>
		<path class="st0" d="M152.5,62.9h-4.2c0,0.4,0.2,0.7,0.5,0.9c0.3,0.2,0.7,0.4,1.1,0.4c0.7,0,1.2-0.2,1.5-0.6l0.6,0.7    c-0.6,0.6-1.3,0.9-2.2,0.9c-0.7,0-1.4-0.2-1.9-0.7c-0.5-0.5-0.8-1.2-0.8-2s0.3-1.5,0.8-2c0.5-0.5,1.2-0.7,1.9-0.7    c0.7,0,1.3,0.2,1.8,0.7s0.8,1,0.8,1.8V62.9z M148.3,62.1h3c0-0.4-0.1-0.8-0.4-1c-0.3-0.2-0.6-0.4-1-0.4c-0.4,0-0.8,0.1-1.1,0.4    C148.5,61.3,148.3,61.6,148.3,62.1z"></path>
		<path class="st0" d="M160.9,64.4c-0.5,0.5-1.2,0.8-2,0.8s-1.5-0.3-2-0.8s-0.8-1.2-0.8-1.9s0.3-1.4,0.8-1.9c0.5-0.5,1.2-0.8,2-0.8    s1.5,0.3,2,0.8c0.5,0.5,0.8,1.2,0.8,1.9S161.4,63.9,160.9,64.4z M157.7,63.7c0.3,0.3,0.7,0.5,1.2,0.5s0.9-0.2,1.2-0.5    s0.5-0.7,0.5-1.3c0-0.5-0.2-0.9-0.5-1.3s-0.7-0.5-1.2-0.5s-0.9,0.2-1.2,0.5s-0.5,0.7-0.5,1.3C157.2,63,157.4,63.4,157.7,63.7z"></path>
		<path class="st0" d="M164.3,60.7v2.7c0,0.3,0.1,0.5,0.2,0.6c0.1,0.2,0.3,0.2,0.6,0.2s0.5-0.1,0.7-0.4l0.5,0.8    c-0.4,0.4-0.8,0.5-1.3,0.5s-0.9-0.2-1.2-0.5c-0.3-0.3-0.5-0.8-0.5-1.3v-2.7h-0.7v-0.9h0.7v-1.7h1.1v1.7h1.4v0.9H164.3z"></path>
		<path class="st0" d="M168.3,62.2v2.9h-1.1v-7.4h1.1v3.1c0.2-0.3,0.4-0.6,0.7-0.8s0.7-0.3,1-0.3c0.6,0,1.1,0.2,1.5,0.6    c0.4,0.4,0.6,0.9,0.6,1.6v3.3h-1.1v-2.9c0-1-0.4-1.5-1.2-1.5c-0.4,0-0.7,0.1-1,0.4C168.4,61.4,168.3,61.7,168.3,62.2z"></path>
		<path class="st0" d="M178.5,62.9h-4.2c0,0.4,0.2,0.7,0.5,0.9c0.3,0.2,0.7,0.4,1.1,0.4c0.7,0,1.2-0.2,1.5-0.6l0.6,0.7    c-0.6,0.6-1.3,0.9-2.2,0.9c-0.7,0-1.4-0.2-1.9-0.7c-0.5-0.5-0.8-1.2-0.8-2s0.3-1.5,0.8-2c0.5-0.5,1.2-0.7,1.9-0.7    c0.7,0,1.3,0.2,1.8,0.7s0.8,1,0.8,1.8V62.9z M174.4,62.1h3c0-0.4-0.1-0.8-0.4-1c-0.3-0.2-0.6-0.4-1-0.4c-0.4,0-0.8,0.1-1.1,0.4    C174.5,61.3,174.4,61.6,174.4,62.1z"></path>
		<path class="st0" d="M182.6,60.8c-0.6,0-1,0.2-1.3,0.5c-0.3,0.4-0.4,0.8-0.4,1.5v2.3h-1.1v-5.3h1.1v1.1c0.2-0.3,0.4-0.6,0.7-0.8    c0.3-0.2,0.6-0.3,1-0.3L182.6,60.8C182.6,60.8,182.6,60.8,182.6,60.8z"></path>
		<path class="st0" d="M188.8,65.2c-0.7,0-1.4-0.3-1.9-0.8c-0.5-0.5-0.8-1.2-0.8-2c0-0.8,0.3-1.5,0.8-2s1.2-0.8,2-0.8s1.5,0.3,2,0.8    l-0.7,0.8c-0.5-0.4-0.9-0.6-1.4-0.6c-0.5,0-0.9,0.2-1.2,0.5c-0.3,0.3-0.5,0.7-0.5,1.2c0,0.5,0.2,0.9,0.5,1.2s0.8,0.5,1.3,0.5    c0.5,0,1-0.2,1.4-0.7l0.7,0.7C190.4,64.9,189.7,65.2,188.8,65.2z"></path>
		<path class="st0" d="M196.6,65.1h-1v-0.7c-0.4,0.5-1,0.8-1.8,0.8c-0.6,0-1-0.2-1.4-0.5s-0.5-0.7-0.5-1.3s0.2-0.9,0.6-1.2    c0.4-0.3,0.9-0.4,1.6-0.4h1.5v-0.2c0-0.7-0.4-1.1-1.2-1.1c-0.5,0-1,0.2-1.5,0.5l-0.5-0.7c0.6-0.5,1.4-0.8,2.2-0.8    c0.6,0,1.1,0.2,1.5,0.5c0.4,0.3,0.6,0.8,0.6,1.5V65.1z M195.4,63.1v-0.4h-1.3c-0.8,0-1.2,0.3-1.2,0.8c0,0.3,0.1,0.5,0.3,0.6    s0.5,0.2,0.8,0.2s0.7-0.1,0.9-0.3S195.4,63.5,195.4,63.1z"></path>
		<path class="st0" d="M200.9,60.8c-0.6,0-1,0.2-1.3,0.5c-0.3,0.4-0.4,0.8-0.4,1.5v2.3h-1.1v-5.3h1.1v1.1c0.2-0.3,0.4-0.6,0.7-0.8    c0.3-0.2,0.6-0.3,1-0.3L200.9,60.8C200.9,60.8,200.9,60.8,200.9,60.8z"></path>
		<path class="st0" d="M207,62.9h-4.2c0,0.4,0.2,0.7,0.5,0.9c0.3,0.2,0.7,0.4,1.1,0.4c0.7,0,1.2-0.2,1.5-0.6l0.6,0.7    c-0.6,0.6-1.3,0.9-2.2,0.9c-0.7,0-1.4-0.2-1.9-0.7c-0.5-0.5-0.8-1.2-0.8-2s0.3-1.5,0.8-2c0.5-0.5,1.2-0.7,1.9-0.7    c0.7,0,1.3,0.2,1.8,0.7s0.8,1,0.8,1.8V62.9z M202.9,62.1h3c0-0.4-0.1-0.8-0.4-1c-0.3-0.2-0.6-0.4-1-0.4c-0.4,0-0.8,0.1-1.1,0.4    C203,61.3,202.9,61.6,202.9,62.1z"></path>
		<path class="st0" d="M212.1,63.5c0,0.5-0.2,0.9-0.5,1.2c-0.4,0.3-0.8,0.5-1.4,0.5c-0.4,0-0.8-0.1-1.2-0.2    c-0.4-0.1-0.8-0.3-1.1-0.6l0.5-0.9c0.6,0.5,1.2,0.7,1.8,0.7c0.3,0,0.5-0.1,0.6-0.2c0.1-0.1,0.2-0.3,0.2-0.4c0-0.3-0.4-0.5-1.1-0.7    c-0.1,0-0.1,0-0.1,0c-1.1-0.3-1.7-0.8-1.7-1.5c0-0.5,0.2-0.9,0.6-1.2c0.4-0.3,0.9-0.4,1.5-0.4s1.2,0.2,1.7,0.5l-0.4,0.8    c-0.4-0.3-0.9-0.4-1.4-0.4c-0.3,0-0.5,0-0.6,0.1c-0.2,0.1-0.3,0.2-0.3,0.4c0,0.2,0.1,0.3,0.3,0.4c0.1,0.1,0.3,0.1,0.5,0.2    c0.2,0.1,0.4,0.1,0.6,0.2c0.2,0.1,0.3,0.1,0.5,0.2c0.2,0.1,0.3,0.2,0.5,0.3C211.9,62.6,212.1,63,212.1,63.5z"></path>
	</g>
	<rect x="59.3" y="48.4" class="st0" width="37.2" height="1.2"></rect>
	<rect x="189.1" y="48.4" class="st0" width="37.2" height="1.2"></rect>
	<g>
		<path class="st0" d="M74,30.8c0,0.5,0,1,0,1.2c0,0.3,0.1,0.5,0.1,0.7c0.1,0.2,0.1,0.3,0.2,0.4c0.1,0.1,0.2,0.2,0.4,0.3    c0.2,0.1,0.4,0.2,0.8,0.3v0.7H70v-0.7c0.5-0.1,0.8-0.3,1-0.4c0.2-0.2,0.3-0.4,0.4-0.7c0.1-0.3,0.1-0.9,0.1-1.7v-5.9h-7.4v5.9    c0,0.6,0,1.1,0.1,1.4c0,0.3,0.1,0.5,0.2,0.7c0.1,0.2,0.2,0.3,0.4,0.4s0.5,0.2,0.9,0.3v0.7h-5.6v-0.7c0.5-0.2,0.9-0.3,1.1-0.5    c0.2-0.2,0.3-0.4,0.4-0.8c0.1-0.3,0.1-0.9,0.1-1.6V18.6c0-0.6,0-1.1-0.1-1.4c0-0.3-0.1-0.5-0.2-0.7c-0.1-0.2-0.2-0.3-0.4-0.4    c-0.2-0.1-0.5-0.2-0.9-0.3v-0.7h5.6v0.7c-0.4,0.1-0.7,0.2-0.8,0.3c-0.2,0.1-0.3,0.2-0.4,0.4c-0.1,0.2-0.2,0.4-0.2,0.7    c0,0.3-0.1,0.8-0.1,1.4v5h7.4v-5c0-0.8,0-1.4-0.1-1.7c-0.1-0.3-0.2-0.5-0.4-0.7c-0.2-0.2-0.5-0.3-1-0.5v-0.7h5.5v0.7    c-0.5,0.1-0.8,0.3-1,0.4c-0.2,0.2-0.3,0.4-0.4,0.7c-0.1,0.3-0.1,0.9-0.1,1.7V30.8z"></path>
		<path class="st0" d="M89,31.9c-0.6,0.6-1.1,1.1-1.6,1.5c-0.5,0.4-1,0.6-1.6,0.8c-0.6,0.2-1.2,0.3-1.9,0.3c-1.8,0-3.2-0.6-4.1-1.7    c-0.9-1.2-1.4-2.9-1.4-5.1c0-1.4,0.2-2.6,0.7-3.7c0.5-1.1,1.1-1.9,2-2.5s1.9-0.9,3-0.9c0.9,0,1.7,0.2,2.3,0.5    c0.6,0.3,1.1,0.7,1.5,1.2c0.4,0.5,0.7,1.2,0.9,2c0.2,0.8,0.3,1.8,0.3,3.1H81v0.3c0,1.1,0.1,2,0.4,2.8c0.2,0.8,0.6,1.3,1.2,1.8    c0.5,0.4,1.2,0.6,2.1,0.6c0.7,0,1.4-0.1,2-0.4c0.6-0.3,1.2-0.8,1.7-1.4L89,31.9z M86.8,26.2c-0.1-1-0.2-1.8-0.4-2.5    c-0.2-0.6-0.5-1.1-0.8-1.5c-0.4-0.3-0.9-0.5-1.5-0.5c-0.9,0-1.6,0.4-2.2,1.2c-0.5,0.8-0.9,1.9-1,3.3H86.8z"></path>
		<path class="st0" d="M99.3,32.3l-0.2-0.1c-0.8,0.8-1.5,1.4-2.2,1.8c-0.7,0.3-1.4,0.5-2.2,0.5c-0.7,0-1.3-0.1-1.8-0.4    c-0.5-0.3-0.9-0.7-1.2-1.2c-0.3-0.5-0.4-1.1-0.4-1.7c0-1.4,0.6-2.4,1.9-3.2c1.3-0.7,3.2-1.2,5.7-1.3v-0.9c0-1-0.1-1.7-0.3-2.3    c-0.2-0.6-0.5-1-0.8-1.2c-0.4-0.3-0.9-0.4-1.5-0.4c-0.7,0-1.2,0.2-1.7,0.6c-0.4,0.4-0.7,1-0.9,1.7h-1.7v-1.8    c0.8-0.5,1.6-0.8,2.1-1c0.6-0.2,1.1-0.4,1.7-0.5c0.6-0.1,1.1-0.2,1.7-0.2c0.9,0,1.6,0.1,2.1,0.4c0.5,0.3,0.9,0.8,1.2,1.4    c0.3,0.6,0.4,1.5,0.4,2.8v4.9c0,0.7,0,1.2,0,1.5c0,0.3,0,0.6,0.1,0.8c0,0.2,0.1,0.4,0.2,0.6c0.1,0.1,0.2,0.3,0.4,0.4    c0.2,0.1,0.5,0.2,0.8,0.3v0.7h-3.6L99.3,32.3z M99.1,27.9c-1.8,0-3.1,0.3-4,0.8c-0.9,0.5-1.3,1.2-1.3,2.2c0,0.5,0.1,1,0.3,1.3    c0.2,0.3,0.5,0.5,0.8,0.6c0.3,0.1,0.7,0.2,1.1,0.2c0.6,0,1.1-0.2,1.6-0.5c0.5-0.3,0.9-0.7,1.1-1.2c0.3-0.5,0.4-1,0.4-1.4V27.9z"></path>
		<path class="st0" d="M108.5,30.8c0,0.8,0,1.4,0.1,1.7c0.1,0.3,0.2,0.6,0.4,0.7c0.2,0.2,0.5,0.3,1,0.4v0.7h-5.3v-0.7    c0.4-0.1,0.7-0.2,0.9-0.4c0.2-0.1,0.3-0.3,0.4-0.5c0.1-0.2,0.1-0.4,0.2-0.7c0-0.3,0-0.7,0-1.2V19c0-0.9,0-1.5,0-1.9    c0-0.4,0-0.7-0.1-0.9c-0.1-0.2-0.1-0.4-0.2-0.6c-0.1-0.1-0.2-0.3-0.4-0.3c-0.2-0.1-0.5-0.2-0.9-0.3v-0.7l3.2-0.1h0.8V30.8z"></path>
		<path class="st0" d="M112.3,33.6c0.3-0.1,0.6-0.2,0.7-0.3c0.1-0.1,0.3-0.2,0.4-0.4c0.1-0.1,0.2-0.4,0.2-0.7    c0.1-0.3,0.1-0.8,0.1-1.5v-6.1c0-0.6,0-1.1,0-1.5c0-0.4-0.1-0.7-0.2-0.9c-0.1-0.2-0.3-0.4-0.5-0.5c-0.2-0.1-0.5-0.2-0.9-0.3v-0.7    l3.1-0.1h0.8v10.1c0,0.8,0,1.4,0.1,1.7c0.1,0.3,0.2,0.6,0.4,0.7c0.2,0.2,0.5,0.3,1,0.4v0.7h-5.2V33.6z M116.1,18h-2.4v-2.7h2.4V18    z"></path>
		<path class="st0" d="M132.7,34.3h-5.2v-0.7c0.3-0.1,0.6-0.2,0.7-0.3c0.2-0.1,0.3-0.2,0.4-0.4c0.1-0.2,0.2-0.4,0.2-0.7    c0.1-0.3,0.1-0.8,0.1-1.4v-3.7c0-0.7,0-1.3-0.1-1.8c0-0.5-0.1-1-0.2-1.3c-0.1-0.3-0.2-0.6-0.3-0.8c-0.1-0.2-0.3-0.4-0.4-0.5    c-0.2-0.1-0.4-0.2-0.6-0.3c-0.2-0.1-0.5-0.1-0.8-0.1c-0.3,0-0.7,0.1-1,0.2c-0.3,0.1-0.6,0.4-1,0.8c-0.4,0.4-0.6,0.7-0.8,1.1    c-0.2,0.3-0.3,0.7-0.3,1.2v5.3c0,0.8,0,1.4,0.1,1.7c0.1,0.3,0.2,0.6,0.4,0.7c0.2,0.2,0.5,0.3,1,0.4v0.7h-5.2v-0.7    c0.3-0.1,0.6-0.2,0.7-0.3c0.1-0.1,0.3-0.2,0.4-0.4c0.1-0.2,0.2-0.4,0.2-0.7c0.1-0.3,0.1-0.8,0.1-1.5v-6.1c0-0.6,0-1.1,0-1.5    c0-0.4-0.1-0.7-0.2-0.9c-0.1-0.2-0.3-0.4-0.5-0.5c-0.2-0.1-0.5-0.2-0.9-0.3v-0.7l3.1-0.1h0.8l-0.1,2.3l0.2,0.1    c0.7-0.7,1.2-1.2,1.6-1.5c0.4-0.3,0.8-0.5,1.2-0.7c0.4-0.2,0.8-0.2,1.3-0.2c0.5,0,0.9,0.1,1.3,0.2c0.4,0.1,0.7,0.3,1,0.5    c0.3,0.2,0.5,0.5,0.7,0.9c0.2,0.4,0.3,0.8,0.4,1.3c0.1,0.5,0.1,1.2,0.1,1.9v5.3c0,0.6,0,1.1,0.1,1.4c0,0.3,0.1,0.5,0.2,0.7    c0.1,0.2,0.2,0.3,0.4,0.4c0.2,0.1,0.5,0.2,0.9,0.3V34.3z"></path>
		<path class="st0" d="M146.8,22.3l-2.4-0.1l-0.1,0.2c0.3,0.3,0.5,0.7,0.6,1.2c0.2,0.5,0.2,1,0.2,1.6c0,1.5-0.4,2.7-1.3,3.5    c-0.9,0.8-2.1,1.2-3.8,1.2c-0.7,0-1.4-0.1-1.9-0.3c-0.7,0.5-1,1.1-1,1.6c0,0.3,0.1,0.6,0.2,0.8c0.1,0.2,0.3,0.3,0.6,0.4    c0.3,0.1,0.7,0.1,1.3,0.1h3.2c0.9,0,1.7,0.2,2.3,0.5c0.6,0.3,1,0.7,1.3,1.2c0.3,0.5,0.4,1.1,0.4,1.8c0,0.9-0.2,1.7-0.7,2.4    c-0.5,0.7-1.2,1.2-2.1,1.6c-0.9,0.4-2,0.6-3.2,0.6c-0.9,0-1.7-0.1-2.4-0.2c-0.7-0.1-1.4-0.3-1.9-0.6c-0.5-0.3-0.9-0.6-1.2-1.1    c-0.3-0.4-0.4-1-0.4-1.6c0-0.6,0.2-1.1,0.6-1.6c0.4-0.5,0.9-0.9,1.6-1.3c-0.4-0.2-0.7-0.4-1-0.8c-0.2-0.3-0.4-0.8-0.4-1.2    c0-0.5,0.1-1,0.4-1.5c0.3-0.4,0.8-1,1.5-1.5c-0.6-0.4-1.1-0.9-1.4-1.6c-0.3-0.7-0.5-1.4-0.5-2.3c0-0.8,0.1-1.5,0.4-2.1    c0.3-0.6,0.6-1.1,1-1.5c0.4-0.4,1-0.7,1.6-0.9c0.6-0.2,1.3-0.3,2-0.3c0.6,0,1.3,0.1,1.9,0.2h4.7V22.3z M138,34.5    c-0.4,0.4-0.8,0.7-1,1.1c-0.2,0.4-0.3,0.9-0.3,1.4c0,0.8,0.3,1.5,0.9,1.9c0.6,0.4,1.6,0.6,2.9,0.6c0.8,0,1.5-0.1,2-0.3    c0.6-0.2,1-0.6,1.3-1c0.3-0.4,0.4-0.9,0.4-1.5c0-0.3,0-0.5-0.1-0.8c-0.1-0.2-0.2-0.5-0.4-0.7c-0.2-0.2-0.4-0.4-0.7-0.5    c-0.3-0.1-0.7-0.2-1.2-0.2h-2C139.2,34.6,138.5,34.6,138,34.5 M137.6,25.1c0,1.2,0.2,2.1,0.7,2.7c0.4,0.6,1.1,1,1.9,1    c0.4,0,0.8-0.1,1.2-0.3c0.3-0.2,0.6-0.4,0.8-0.8c0.2-0.3,0.3-0.7,0.4-1.1c0.1-0.4,0.1-0.9,0.1-1.3c0-0.8-0.1-1.5-0.3-2.1    c-0.2-0.6-0.5-1-0.9-1.2c-0.4-0.3-0.8-0.4-1.3-0.4c-0.8,0-1.5,0.3-1.9,0.9C137.9,23.1,137.6,24,137.6,25.1"></path>
		<path class="st0" d="M168.5,30.8c0,0.5,0,1,0,1.2c0,0.3,0.1,0.5,0.1,0.7c0.1,0.2,0.1,0.3,0.2,0.4c0.1,0.1,0.2,0.2,0.4,0.3    c0.2,0.1,0.4,0.2,0.8,0.3v0.7h-5.5v-0.7c0.5-0.1,0.8-0.3,1-0.4c0.2-0.2,0.3-0.4,0.4-0.7c0.1-0.3,0.1-0.9,0.1-1.7v-5.9h-7.4v5.9    c0,0.6,0,1.1,0.1,1.4c0,0.3,0.1,0.5,0.2,0.7c0.1,0.2,0.2,0.3,0.4,0.4c0.2,0.1,0.5,0.2,0.9,0.3v0.7h-5.6v-0.7    c0.5-0.2,0.9-0.3,1.1-0.5c0.2-0.2,0.3-0.4,0.4-0.8c0.1-0.3,0.1-0.9,0.1-1.6V18.6c0-0.6,0-1.1-0.1-1.4c0-0.3-0.1-0.5-0.2-0.7    c-0.1-0.2-0.2-0.3-0.4-0.4c-0.2-0.1-0.5-0.2-0.9-0.3v-0.7h5.6v0.7c-0.4,0.1-0.7,0.2-0.8,0.3c-0.2,0.1-0.3,0.2-0.4,0.4    c-0.1,0.2-0.2,0.4-0.2,0.7c0,0.3-0.1,0.8-0.1,1.4v5h7.4v-5c0-0.8,0-1.4-0.1-1.7c-0.1-0.3-0.2-0.5-0.4-0.7c-0.2-0.2-0.5-0.3-1-0.5    v-0.7h5.5v0.7c-0.5,0.1-0.8,0.3-1,0.4c-0.2,0.2-0.3,0.4-0.4,0.7c-0.1,0.3-0.1,0.9-0.1,1.7V30.8z"></path>
		<path class="st0" d="M180.6,32.3l-0.2-0.1c-0.8,0.8-1.5,1.4-2.2,1.8c-0.7,0.3-1.4,0.5-2.2,0.5c-0.7,0-1.3-0.1-1.8-0.4    c-0.5-0.3-0.9-0.7-1.2-1.2c-0.3-0.5-0.4-1.1-0.4-1.7c0-1.4,0.6-2.4,1.9-3.2c1.3-0.7,3.2-1.2,5.7-1.3v-0.9c0-1-0.1-1.7-0.3-2.3    c-0.2-0.6-0.5-1-0.8-1.2c-0.4-0.3-0.9-0.4-1.5-0.4c-0.7,0-1.2,0.2-1.7,0.6c-0.4,0.4-0.7,1-0.9,1.7h-1.7v-1.8    c0.8-0.5,1.6-0.8,2.1-1c0.6-0.2,1.1-0.4,1.7-0.5c0.6-0.1,1.1-0.2,1.7-0.2c0.9,0,1.6,0.1,2.1,0.4c0.5,0.3,0.9,0.8,1.2,1.4    c0.3,0.6,0.4,1.5,0.4,2.8v4.9c0,0.7,0,1.2,0,1.5c0,0.3,0,0.6,0.1,0.8c0,0.2,0.1,0.4,0.2,0.6c0.1,0.1,0.2,0.3,0.4,0.4    c0.2,0.1,0.5,0.2,0.8,0.3v0.7h-3.6L180.6,32.3z M180.4,27.9c-1.8,0-3.1,0.3-4,0.8c-0.9,0.5-1.3,1.2-1.3,2.2c0,0.5,0.1,1,0.3,1.3    c0.2,0.3,0.5,0.5,0.8,0.6c0.3,0.1,0.7,0.2,1.1,0.2c0.6,0,1.1-0.2,1.6-0.5c0.5-0.3,0.9-0.7,1.1-1.2c0.3-0.5,0.4-1,0.4-1.4V27.9z"></path>
		<path class="st0" d="M199.1,34.3h-5.2v-0.7c0.3-0.1,0.6-0.2,0.7-0.3c0.2-0.1,0.3-0.2,0.4-0.4c0.1-0.2,0.2-0.4,0.2-0.7    c0.1-0.3,0.1-0.8,0.1-1.4v-3.7c0-0.7,0-1.3-0.1-1.8c0-0.5-0.1-1-0.2-1.3s-0.2-0.6-0.3-0.8c-0.1-0.2-0.3-0.4-0.4-0.5    c-0.2-0.1-0.4-0.2-0.6-0.3c-0.2-0.1-0.5-0.1-0.8-0.1c-0.3,0-0.7,0.1-1,0.2c-0.3,0.1-0.6,0.4-1,0.8c-0.4,0.4-0.6,0.7-0.8,1.1    c-0.2,0.3-0.3,0.7-0.3,1.2v5.3c0,0.8,0,1.4,0.1,1.7c0.1,0.3,0.2,0.6,0.4,0.7c0.2,0.2,0.5,0.3,1,0.4v0.7h-5.2v-0.7    c0.3-0.1,0.6-0.2,0.7-0.3c0.1-0.1,0.3-0.2,0.4-0.4c0.1-0.2,0.2-0.4,0.2-0.7c0.1-0.3,0.1-0.8,0.1-1.5v-6.1c0-0.6,0-1.1,0-1.5    c0-0.4-0.1-0.7-0.2-0.9c-0.1-0.2-0.3-0.4-0.5-0.5c-0.2-0.1-0.5-0.2-0.9-0.3v-0.7l3.1-0.1h0.8l-0.1,2.3l0.2,0.1    c0.7-0.7,1.2-1.2,1.6-1.5c0.4-0.3,0.8-0.5,1.2-0.7c0.4-0.2,0.8-0.2,1.3-0.2c0.5,0,0.9,0.1,1.3,0.2c0.4,0.1,0.7,0.3,1,0.5    c0.3,0.2,0.5,0.5,0.7,0.9c0.2,0.4,0.3,0.8,0.4,1.3c0.1,0.5,0.1,1.2,0.1,1.9v5.3c0,0.6,0,1.1,0.1,1.4c0,0.3,0.1,0.5,0.2,0.7    c0.1,0.2,0.2,0.3,0.4,0.4c0.2,0.1,0.5,0.2,0.9,0.3V34.3z"></path>
		<path class="st0" d="M210.3,19c0-0.9,0-1.5,0-1.9c0-0.4,0-0.7-0.1-0.9c-0.1-0.2-0.1-0.4-0.2-0.6c-0.1-0.1-0.2-0.3-0.4-0.3    c-0.2-0.1-0.5-0.2-0.9-0.3v-0.7l3.2-0.1h0.8v16.3c0,0.7,0,1.3,0,1.6c0,0.3,0.1,0.6,0.2,0.8c0.1,0.2,0.2,0.3,0.4,0.5    c0.2,0.1,0.5,0.2,1,0.3v0.7l-3.1,0.1h-0.8l0.2-2.3l-0.2-0.1c-0.6,0.6-1,1.1-1.5,1.4c-0.4,0.3-0.8,0.6-1.3,0.8    c-0.5,0.2-1,0.3-1.5,0.3c-1.4,0-2.6-0.6-3.4-1.8c-0.8-1.2-1.2-2.9-1.2-5.1c0-1.5,0.3-2.9,0.8-3.9c0.5-1.1,1.2-1.9,2.1-2.4    c0.9-0.5,1.8-0.8,2.9-0.8c0.6,0,1.1,0,1.6,0.1c0.5,0.1,1,0.3,1.5,0.5V19z M210.3,25.9c0-0.7,0-1.3-0.1-1.8    c-0.1-0.4-0.2-0.8-0.3-1.1c-0.1-0.3-0.3-0.6-0.6-0.8c-0.2-0.2-0.5-0.4-0.8-0.5c-0.3-0.1-0.7-0.1-1.1-0.1c-1.1,0-2,0.5-2.6,1.4    c-0.6,1-0.9,2.3-0.9,4.2s0.2,3.2,0.7,4.1c0.5,0.9,1.2,1.4,2.2,1.4c0.4,0,0.7,0,1-0.1c0.3-0.1,0.5-0.2,0.8-0.3    c0.2-0.2,0.5-0.4,0.8-0.6c0.3-0.3,0.4-0.5,0.6-0.7c0.1-0.2,0.2-0.5,0.3-0.8c0.1-0.3,0.1-0.7,0.1-1.1V25.9z"></path>
		<path class="st0" d="M225.2,23.9H224c-0.2-0.6-0.4-1-0.7-1.3c-0.3-0.3-0.6-0.6-0.9-0.7c-0.3-0.1-0.7-0.2-1.2-0.2    c-0.7,0-1.3,0.2-1.7,0.5c-0.4,0.4-0.6,0.8-0.6,1.4c0,0.4,0.1,0.8,0.3,1.1c0.2,0.3,0.4,0.5,0.8,0.8c0.4,0.2,1,0.6,1.9,1    c0.9,0.4,1.6,0.8,2.1,1.1c0.5,0.3,0.9,0.8,1.2,1.2c0.3,0.5,0.4,1,0.4,1.7c0,0.7-0.1,1.4-0.4,1.9c-0.2,0.5-0.6,0.9-1,1.2    c-0.4,0.3-0.9,0.6-1.5,0.7c-0.6,0.1-1.2,0.2-2,0.2c-0.7,0-1.5-0.1-2.2-0.2c-0.7-0.1-1.4-0.3-2-0.5V31h1.3c0.2,0.9,0.6,1.5,1.1,1.9    c0.5,0.4,1.1,0.6,1.9,0.6c0.3,0,0.6,0,0.9-0.1c0.3-0.1,0.6-0.2,0.8-0.4c0.2-0.2,0.4-0.4,0.6-0.7c0.1-0.3,0.2-0.6,0.2-1.1    c0-0.5-0.1-0.9-0.3-1.2c-0.2-0.3-0.5-0.6-0.8-0.8c-0.4-0.2-1-0.6-2-1c-0.8-0.4-1.4-0.7-1.9-1c-0.5-0.3-0.9-0.7-1.1-1.2    c-0.3-0.5-0.4-1-0.4-1.6c0-0.8,0.2-1.4,0.6-2c0.4-0.6,1-1,1.7-1.3c0.7-0.3,1.6-0.5,2.6-0.5c0.6,0,1.1,0,1.7,0.1    c0.5,0.1,1.2,0.2,2,0.4V23.9z"></path>
		<path class="st0" d="M228.5,18.1c0.3,0,0.5,0.1,0.8,0.2c0.2,0.1,0.4,0.3,0.6,0.6c0.1,0.2,0.2,0.5,0.2,0.8c0,0.3-0.1,0.5-0.2,0.8    c-0.1,0.2-0.3,0.4-0.6,0.6c-0.2,0.1-0.5,0.2-0.8,0.2c-0.3,0-0.5-0.1-0.8-0.2c-0.2-0.1-0.4-0.3-0.6-0.6c-0.1-0.2-0.2-0.5-0.2-0.8    c0-0.3,0.1-0.5,0.2-0.8c0.1-0.2,0.3-0.4,0.6-0.6C228,18.2,228.2,18.1,228.5,18.1 M228.5,18.4c-0.2,0-0.4,0.1-0.6,0.2    c-0.2,0.1-0.4,0.3-0.5,0.5c-0.1,0.2-0.2,0.4-0.2,0.6c0,0.2,0.1,0.4,0.2,0.6c0.1,0.2,0.3,0.4,0.5,0.5c0.2,0.1,0.4,0.2,0.6,0.2    c0.2,0,0.4-0.1,0.6-0.2c0.2-0.1,0.4-0.3,0.5-0.5c0.1-0.2,0.2-0.4,0.2-0.6c0-0.2-0.1-0.4-0.2-0.6c-0.1-0.2-0.3-0.4-0.5-0.5    C228.9,18.4,228.7,18.4,228.5,18.4 M227.8,20.5v-1.7h0.6c0.2,0,0.3,0,0.4,0c0.1,0,0.2,0.1,0.2,0.2c0.1,0.1,0.1,0.2,0.1,0.2    c0,0.1,0,0.2-0.1,0.3c-0.1,0.1-0.2,0.1-0.3,0.2c0.1,0,0.1,0.1,0.1,0.1c0.1,0.1,0.1,0.2,0.2,0.3l0.2,0.3h-0.3l-0.1-0.3    c-0.1-0.2-0.2-0.3-0.3-0.4c0,0-0.1-0.1-0.2-0.1h-0.2v0.7H227.8z M228.1,19.6h0.3c0.2,0,0.3,0,0.3-0.1c0.1,0,0.1-0.1,0.1-0.2    c0,0,0-0.1,0-0.1c0,0-0.1-0.1-0.1-0.1c0,0-0.1,0-0.3,0h-0.3V19.6z"></path>
	</g>
	<path class="st0" d="M23.8,47.1c0-0.3,0-0.7,0.1-1c0.1-2.1,0.8-4,1.9-5.7c0.9-1.4,1.9-2.5,3.3-3.4c0.7-0.5,1.4-0.8,2.3-1   c0.4-0.1,0.8-0.1,1.1,0c0.3,0.1,0.6,0.3,0.8,0.6c0.1,0.2,0.2,0.5,0,0.7c-0.1,0.2-0.2,0.5-0.4,0.7c-0.3,0.5-0.6,1-0.9,1.5   c-0.2,0.3-0.3,0.6-0.4,0.9c-0.2,0.7-0.5,1.4-0.6,2.1c-0.1,0.8-0.1,1.5,0,2.3c0.1,1.5,0.6,3,1.1,4.4c0.3,0.8,0.6,1.6,0.8,2.4   c0.6,1.9,0.5,3.8-0.3,5.7c-1,2.3-2.5,4.2-4.5,5.7c-1.6,1.2-3.4,2.2-5.3,3c-1.4,0.6-2.7,1-4.1,1.4c-0.1,0-0.2,0-0.3,0.1   c0-0.3,0-0.7-0.1-1c-0.2-3.4-1-6.6-2.6-9.6c-0.9-1.8-2-3.4-3.2-5c-0.8-1.1-1.6-2.2-2.4-3.3c-0.8-1.1-1.4-2.3-1.9-3.7   c-0.6-1.6-0.7-3.2-0.5-4.9c0.2-1.6,0.7-3.2,1.4-4.7c0.8-1.8,1.9-3.6,3.1-5.2c1.9-2.8,4.1-5.4,6.4-7.8c0.3-0.3,0.6-0.6,0.9-0.9   c0.1-0.1,0.1-0.1,0.3-0.1c0.2,0,0.3,0,0.5,0c0.5,0.1,0.9,0.4,1,0.9c0.1,0.3,0.1,0.6,0.1,0.9c0,1-0.1,1.9-0.4,2.9   c-0.3,1.3-0.7,2.5-1.1,3.7c-0.6,1.9-1.1,3.8-1.4,5.7c-0.4,2.1-0.6,4.3-0.5,6.4c0.1,1.5,0.3,3,0.8,4.4c0.1,0.4,0.3,0.7,0.6,1.1   c0.6,0.8,1.4,1,2.3,0.8C22.6,47.9,23.2,47.6,23.8,47.1"></path>
	<path class="st1" d="M38.8,3c0,0.3,0,0.7,0.1,1c0.2,3.2,1,6.3,2.4,9.2c0.9,1.8,2,3.4,3.1,5c0.9,1.2,1.8,2.5,2.6,3.7   c0.7,1.1,1.4,2.2,1.8,3.4c0.6,1.7,0.9,3.4,0.6,5.1c-0.2,1.6-0.7,3.2-1.4,4.6c-0.8,1.8-1.8,3.5-3,5.1c-2.1,3-4.4,5.7-6.9,8.4   c-0.2,0.2-0.3,0.3-0.5,0.5c-0.1,0.1-0.1,0.1-0.2,0.1c-0.2,0-0.4,0-0.5,0c-0.5-0.1-0.9-0.4-1.1-0.9c-0.2-0.5-0.2-1.1-0.1-1.6   c0.1-1.4,0.5-2.8,0.9-4.1c0.5-1.7,1-3.3,1.4-5c0.4-1.6,0.7-3.2,0.9-4.8c0.2-1.4,0.3-2.9,0.2-4.3c-0.1-1.4-0.3-2.7-0.7-4   c-0.2-0.5-0.4-0.9-0.7-1.3c-0.6-0.7-1.3-1-2.2-0.8c-0.8,0.2-1.4,0.5-2,1c-0.1,0.1-0.1,0.2-0.1,0.2c0,0.7-0.1,1.4-0.2,2   c-0.4,2.2-1.3,4.1-2.7,5.8c-0.8,1-1.8,1.9-3,2.5c-0.6,0.3-1.2,0.6-1.9,0.6c-0.3,0-0.6,0-0.9-0.1c-0.4-0.1-0.6-0.4-0.8-0.7   c-0.1-0.2-0.1-0.3,0-0.5c0.1-0.2,0.1-0.4,0.2-0.5c0.3-0.6,0.7-1.2,1.1-1.8c0.1-0.2,0.2-0.5,0.3-0.7c0.2-0.7,0.5-1.5,0.6-2.2   c0.1-0.8,0.1-1.6,0.1-2.4c-0.1-1.5-0.6-2.9-1.1-4.3c-0.3-0.9-0.7-1.9-1-2.8c-0.6-1.8-0.3-3.6,0.4-5.4c1-2.2,2.4-4.1,4.3-5.6   c1.5-1.2,3.2-2.1,4.9-2.9c1.5-0.7,3.1-1.2,4.7-1.6C38.6,3.1,38.7,3,38.8,3C38.7,3,38.8,3,38.8,3"></path>
	<path class="st0" d="M49.9,0c0.1,0.1,0.1,0.1,0.2,0.2c0,0.1,0,0.1-0.1,0.2c-0.3,0.7-0.7,1.4-1,2.1c-0.8,1.6-1.3,3.3-1.5,5   c-0.2,1.3-0.3,2.7-0.2,4c0,0.6,0.1,1.1,0.2,1.6c0.1,0.7,0.3,1.4,0.4,2.1c0.2,1.1,0.6,2.1,1.2,3.1c0.2,0.4,0.5,0.9,0.7,1.3   c0,0.1,0.1,0.2,0.1,0.3c-0.1-0.1-0.2-0.1-0.3-0.1c-0.4-0.3-0.8-0.6-1.2-0.9c-1-0.9-1.8-2-2.5-3.1c-0.9-1.3-1.7-2.7-2.4-4.2   c-0.3-0.8-0.6-1.6-0.7-2.4c-0.2-1-0.4-2.1-0.6-3.1c-0.2-1.1-0.3-2.3-0.2-3.4c0-0.4,0.1-0.8,0.2-1.2c0.2,0.3,0.3,0.7,0.5,1   c0.1,0.3,0.3,0.7,0.4,1c0.1,0.3,0.3,0.7,0.4,1c0.1,0.3,0.3,0.7,0.4,1c0.1,0.3,0.3,0.7,0.4,1C46.4,4.3,48.1,2.1,49.9,0"></path>
	<path class="st1" d="M5.2,50.8c0.2,0,0.4,0.1,0.6,0.2c0.6,0.3,1.1,0.6,1.5,1c0.9,0.8,1.8,1.6,2.6,2.5c0.3,0.4,0.6,0.7,0.9,1.1   c0.7,0.9,1.3,1.8,1.8,2.9c1,2,1.7,4,2.1,6.2c0.1,0.7,0.2,1.3,0.3,2c0,0.4,0,0.8-0.1,1.2c-0.1,0-0.1-0.1-0.2-0.2   c-0.2-0.5-0.5-1-0.7-1.5c-0.4-1.1-1-2.1-1.8-3c-0.6-0.7-1.2-1.5-1.9-2.1c-1.2-1.2-2.7-2.2-4.2-2.9c-1.5-0.7-3.1-1.3-4.7-1.7   C1,56.3,0.5,56.1,0,56c0.1,0,0.3,0,0.4,0c1-0.1,2.1-0.1,3.1-0.2c1.2-0.1,2.5-0.1,3.7-0.2c0.2,0,0.4,0,0.5-0.2c0,0,0,0,0-0.1   C7,53.8,6.1,52.3,5.2,50.8"></path>
	<path class="st0" d="M46.5,2.2c0,0.8-0.7,1.5-1.5,1.5S43.6,3,43.6,2.2c0-0.8,0.7-1.5,1.5-1.5S46.5,1.4,46.5,2.2"></path>
	<path class="st1" d="M5.3,53.2c0,0.8-0.7,1.5-1.5,1.5S2.4,54,2.4,53.2c0-0.8,0.7-1.5,1.5-1.5S5.3,52.4,5.3,53.2"></path>
</g>
</svg>